<?xml version="1.0" standalone="no"?>
<!DOCTYPE svg PUBLIC "-//W3C//DTD SVG 20010904//EN"
 "http://www.w3.org/TR/2001/REC-SVG-20010904/DTD/svg10.dtd">
<svg version="1.0" xmlns="http://www.w3.org/2000/svg"
 width="61.000000pt" height="110.000000pt" viewBox="0 0 61.000000 110.000000"
 preserveAspectRatio="xMidYMid meet">

<g transform="translate(0.000000,110.000000) scale(0.100000,-0.100000)"
fill="#000000" stroke="none">
<path d="M36 1071 c-10 -11 -16 -30 -14 -44 2 -16 79 -108 212 -251 l208 -227
-23 -27 c-13 -14 -111 -117 -216 -229 -119 -126 -193 -212 -193 -224 0 -39 19
-59 54 -59 31 0 55 22 286 260 151 155 250 265 248 275 -2 8 -115 134 -252
280 -259 276 -273 287 -310 246z"/>
</g>
</svg>
