<?xml version="1.0" standalone="no"?>
<!DOCTYPE svg PUBLIC "-//W3C//DTD SVG 20010904//EN"
 "http://www.w3.org/TR/2001/REC-SVG-20010904/DTD/svg10.dtd">
<svg version="1.0" xmlns="http://www.w3.org/2000/svg"
 width="61.000000pt" height="110.000000pt" viewBox="0 0 61.000000 110.000000"
 preserveAspectRatio="xMidYMid meet">

<g transform="translate(0.000000,110.000000) scale(0.100000,-0.100000)"
fill="#000000" stroke="none">
<path d="M264 825 c-137 -146 -250 -272 -252 -280 -2 -10 97 -120 248 -275
231 -238 255 -260 286 -260 35 0 54 20 54 59 0 12 -74 98 -192 224 -106 112
-204 215 -217 229 l-23 27 208 227 c133 143 210 235 212 251 4 30 -23 63 -53
63 -16 0 -91 -73 -271 -265z"/>
</g>
</svg>
